<svg width="128" height="128" viewBox="0 0 128 128" fill="none" xmlns="http://www.w3.org/2000/svg">
<rect width="128" height="128" fill="white"/>
<path d="M24.472 76.32C22.7227 76.32 21.112 76.0427 19.64 75.488C18.1893 74.912 16.92 74.112 15.832 73.088C14.744 72.0427 13.9013 70.816 13.304 69.408C12.7067 68 12.408 66.464 12.408 64.8C12.408 63.136 12.7067 61.6 13.304 60.192C13.9013 58.784 14.744 57.568 15.832 56.544C16.9413 55.4987 18.232 54.6987 19.704 54.144C21.176 53.568 22.7867 53.28 24.536 53.28C26.4347 53.28 28.1413 53.5893 29.656 54.208C31.192 54.8267 32.4827 55.7333 33.528 56.928L30.904 59.488C30.0293 58.6133 29.08 57.9733 28.056 57.568C27.0533 57.1413 25.944 56.928 24.728 56.928C23.5547 56.928 22.4667 57.12 21.464 57.504C20.4613 57.888 19.5973 58.432 18.872 59.136C18.1467 59.84 17.5813 60.672 17.176 61.632C16.792 62.592 16.6 63.648 16.6 64.8C16.6 65.9307 16.792 66.976 17.176 67.936C17.5813 68.896 18.1467 69.7387 18.872 70.464C19.5973 71.168 20.4507 71.712 21.432 72.096C22.4133 72.48 23.5013 72.672 24.696 72.672C25.8053 72.672 26.872 72.5013 27.896 72.16C28.9413 71.7973 29.9333 71.2 30.872 70.368L33.24 73.472C32.0667 74.4107 30.7013 75.1253 29.144 75.616C27.608 76.0853 26.0507 76.32 24.472 76.32ZM29.304 72.928V64.544H33.24V73.472L29.304 72.928ZM38.7268 76V53.6H42.8868V76H38.7268ZM45.7775 76L55.8575 53.6H59.9535L70.0655 76H65.7135L57.0415 55.808H58.7055L50.0655 76H45.7775ZM50.4175 70.816L51.5375 67.552H63.6335L64.7535 70.816H50.4175ZM72.9143 76V53.6H76.3383L90.3863 70.848H88.6903V53.6H92.8183V76H89.3943L75.3463 58.752H77.0423V76H72.9143ZM103.365 76V57.12H95.9405V53.6H114.949V57.12H107.525V76H103.365Z" fill="black"/>
</svg>
